HIERARCHY
ROOT root
{
	OFFSET 0.000000 0.000000 0.000000
	CHANNELS 6 Xposition Yposition Zposition Zrotation Yrotation Xrotation
	JOINT lhip
	{
		OFFSET 0.058581 -0.082280 -0.017664
		CHANNELS 3 Zrotation Yrotation Xrotation
		JOINT lknee
		{
			OFFSET 0.043451 -0.386469 0.008037
			CHANNELS 3 Zrotation Yrotation Xrotation
			JOINT lankle
			{
				OFFSET -0.014790 -0.426874 -0.037428
				CHANNELS 3 Zrotation Yrotation Xrotation
				JOINT ltoe
				{
					OFFSET 0.041054 -0.060286 0.122042
					CHANNELS 3 Zrotation Yrotation Xrotation
					End Site
					{
						OFFSET 0.000000 0.000000 0.000000
					}
				}
			}
		}
	}
	JOINT rhip
	{
		OFFSET -0.060310 -0.090513 -0.013543
		CHANNELS 3 Zrotation Yrotation Xrotation
		JOINT rknee
		{
			OFFSET -0.043257 -0.383688 -0.004843
			CHANNELS 3 Zrotation Yrotation Xrotation
			JOINT rankle
			{
				OFFSET 0.019056 -0.420046 -0.034562
				CHANNELS 3 Zrotation Yrotation Xrotation
				JOINT rtoe
				{
					OFFSET -0.034840 -0.062106 0.130323
					CHANNELS 3 Zrotation Yrotation Xrotation
					End Site
					{
						OFFSET 0.000000 0.000000 0.000000
					}
				}
			}
		}
	}
	JOINT lowerback
	{
		OFFSET 0.004439 0.124404 -0.038385
		CHANNELS 3 Zrotation Yrotation Xrotation
		JOINT upperback
		{
			OFFSET 0.004488 0.137956 0.026820
			CHANNELS 3 Zrotation Yrotation Xrotation
			JOINT chest
			{
				OFFSET -0.002265 0.056032 0.002855
				CHANNELS 3 Zrotation Yrotation Xrotation
				JOINT lowerneck
				{
					OFFSET -0.013390 0.211636 -0.033468
					CHANNELS 3 Zrotation Yrotation Xrotation
					JOINT upperneck
					{
						OFFSET 0.010113 0.088937 0.050410
						CHANNELS 3 Zrotation Yrotation Xrotation
						End Site
						{
							OFFSET 0.000000 0.000000 0.000000
						}
					}
				}
				JOINT lclavicle
				{
					OFFSET 0.071702 0.114000 -0.018898
					CHANNELS 3 Zrotation Yrotation Xrotation
					JOINT lshoulder
					{
						OFFSET 0.122921 0.045205 -0.019046
						CHANNELS 3 Zrotation Yrotation Xrotation
						JOINT lelbow
						{
							OFFSET 0.255332 -0.015649 -0.022946
							CHANNELS 3 Zrotation Yrotation Xrotation
							JOINT lwrist
							{
								OFFSET 0.265709 0.012698 -0.007375
								CHANNELS 3 Zrotation Yrotation Xrotation
								End Site
								{
									OFFSET 0.000000 0.000000 0.000000
								}
							}
						}
					}
				}
				JOINT rclavicle
				{
					OFFSET -0.082954 0.112472 -0.023707
					CHANNELS 3 Zrotation Yrotation Xrotation
					JOINT rshoulder
					{
						OFFSET -0.113228 0.046853 -0.008472
						CHANNELS 3 Zrotation Yrotation Xrotation
						JOINT relbow
						{
							OFFSET -0.260127 -0.014369 -0.031269
							CHANNELS 3 Zrotation Yrotation Xrotation
							JOINT rwrist
							{
								OFFSET -0.269108 0.006794 -0.006027
								CHANNELS 3 Zrotation Yrotation Xrotation
								End Site
								{
									OFFSET 0.000000 0.000000 0.000000
								}
							}
						}
					}
				}
			}
		}
	}
}
MOTION
Frames: 16
Frame Time: 0.033333
-0.160984 0.290684 0.896772 88.008652 -5.046440 87.736706 5.291116 -7.849623 -34.615177 -8.280320 6.318006 31.544742 3.696678 8.570818 -6.992196 0.000000 -0.000000 0.000000 -9.625298 -3.389868 12.962816 -3.091017 6.609013 44.794091 5.157979 -10.615845 -9.458461 0.000000 -0.000000 0.000000 -2.539587 9.964840 16.904828 -2.751269 -1.369594 0.404936 -2.218500 1.731165 -0.625079 2.072332 -5.719415 -18.197756 5.510982 -9.731983 3.412972 -26.052794 2.920323 -1.407034 -49.774456 0.741613 7.088112 12.626349 -53.532502 9.079358 10.675632 -0.153299 5.497484 24.887285 6.947100 -0.868106 56.892331 2.629678 14.688289 -12.423275 34.073911 -2.774454 -21.767133 1.732609 10.201117 
-0.110027 0.301755 0.912369 88.486105 -4.466172 87.419408 3.688787 -8.578081 -31.052903 -7.636125 5.389193 32.394428 6.303569 9.614831 -10.023417 0.000000 -0.000000 0.000000 -7.875378 -0.472545 7.452949 -1.449602 5.962952 54.667206 4.053124 -12.040157 -0.559686 0.000000 -0.000000 0.000000 -3.001793 7.768387 16.209142 -1.658575 -1.053004 -0.973431 -1.760169 1.576173 -0.275480 2.100601 -4.998458 -16.233163 4.658153 -7.878361 5.274219 -26.107007 1.742710 -1.547603 -50.229708 -0.640889 8.050305 10.085250 -47.654269 13.280217 3.030761 -3.568772 9.757424 24.341710 6.506620 -1.323029 57.441945 -0.606577 17.150843 -8.784668 29.327958 3.285683 -17.728615 2.335211 8.996309 
-0.062892 0.310228 0.929585 89.380530 -3.935814 86.701542 1.728102 -9.978149 -26.393049 -6.741442 3.066942 31.221466 7.548242 12.079022 -11.446629 0.000000 -0.000000 0.000000 -6.682501 1.177309 1.628035 -1.196713 4.232928 62.627379 2.371735 -14.841869 -0.602347 0.000000 -0.000000 0.000000 -3.515788 5.537150 16.229294 -0.376828 -1.378061 -1.547873 -1.077494 0.999109 0.035545 2.357072 -3.471010 -15.410071 3.727304 -6.366220 6.687944 -25.432259 1.561655 -1.199390 -51.394915 -2.492792 8.591602 8.556946 -45.061031 15.554857 -2.663271 -4.967355 9.399759 24.434486 5.926343 -1.881575 57.155625 -2.444203 18.735423 -7.294747 25.164055 8.512808 -12.294073 3.932472 10.866488 
-0.018151 0.316925 0.947973 89.777357 -3.109193 85.360926 -0.365722 -9.703199 -20.224158 -5.472129 -0.221323 28.608547 7.987613 14.172734 -12.032557 0.000000 -0.000000 0.000000 -5.846997 1.608648 -3.955999 -1.928785 2.976039 67.687808 1.944852 -15.463378 -1.899635 0.000000 -0.000000 0.000000 -3.301134 3.743074 17.156925 0.625148 -1.507156 -1.516731 -0.343262 0.212791 0.276598 2.367760 -2.009328 -14.551254 3.455838 -5.172919 6.054813 -24.547951 0.532405 -0.665305 -52.181113 -3.832728 9.537479 7.348186 -44.653971 16.042496 -4.203380 -4.352019 5.839545 24.923199 5.548144 -1.986771 56.619577 -3.439431 18.800570 -7.503300 22.249678 9.300792 -9.780956 3.662669 11.613113 
0.023985 0.322639 0.964929 89.975418 -2.053640 84.412905 -1.580674 -8.069501 -14.392883 -4.558851 -3.647126 25.358450 8.207072 15.478384 -12.357668 0.000000 -0.000000 0.000000 -5.027085 1.983906 -9.934371 -1.179566 1.877864 70.039811 1.461419 -15.680898 -2.867928 0.000000 -0.000000 0.000000 -2.779635 1.773448 17.731656 1.515394 -1.342394 -1.308474 0.280881 -0.631504 0.464817 2.357961 -0.665136 -13.593929 3.450623 -4.101367 4.938081 -23.843281 -0.769397 -0.370579 -52.184645 -4.366944 10.942536 6.700662 -45.850503 15.916504 -2.698129 -3.453282 2.912178 25.350780 5.184776 -1.941699 56.189549 -3.880166 18.075438 -8.215858 20.006058 6.473461 -10.535326 1.675687 9.754837 
0.064567 0.327364 0.978769 90.401387 -1.112780 83.419841 -2.210564 -6.042707 -8.793387 -3.945236 -7.099222 22.066893 7.731082 16.295242 -12.859444 0.000000 -0.000000 0.000000 -4.423573 2.355779 -15.133722 -0.413093 0.501349 69.202578 1.987631 -14.936479 -5.034764 0.000000 -0.000000 0.000000 -2.320462 -0.461854 18.976310 2.173857 -1.478504 -1.712890 0.798135 -1.156380 0.685762 2.484352 0.806561 -12.542142 3.459596 -3.592495 3.770184 -23.128016 -1.263138 -0.534222 -51.698103 -4.695656 11.842720 5.806125 -48.355066 16.455768 -0.422728 -2.908801 1.416927 25.568218 4.730469 -1.944261 56.031416 -4.256147 16.809619 -9.139606 19.183071 2.564484 -12.421810 -0.617547 7.492405 
0.103995 0.331177 0.987677 90.967949 -0.265372 82.487129 -2.257733 -4.246093 -3.575418 -3.402266 -10.077445 18.945160 6.771090 16.833709 -13.699023 0.000000 -0.000000 0.000000 -4.038166 2.904726 -19.395833 -0.112584 -1.042941 65.240945 3.414203 -13.420308 -7.416726 0.000000 -0.000000 0.000000 -1.866179 -2.594447 20.387935 2.639740 -1.748319 -2.114955 1.184515 -1.544565 0.994195 2.745532 2.226399 -11.915635 3.354424 -3.590486 2.781976 -22.586404 -0.997706 -0.951142 -50.796601 -5.552586 12.222151 4.728136 -51.357242 17.123139 1.503616 -3.050692 0.875275 25.760520 4.039756 -2.123067 55.790326 -4.567180 15.817086 -9.917282 19.795659 -0.403747 -14.529510 -1.722383 6.473340 
0.141734 0.334515 0.991224 91.517822 0.495522 82.081628 -1.905986 -2.841608 0.708779 -2.920114 -12.222928 16.221687 5.872715 17.226382 -14.941146 0.000000 -0.000000 0.000000 -4.000933 3.603126 -23.088860 0.210369 -2.505924 58.429096 4.962205 -12.302594 -9.708699 0.000000 -0.000000 0.000000 -1.293726 -4.336417 21.192244 3.004181 -1.854084 -2.266455 1.453068 -2.040321 1.402034 2.959319 3.257205 -11.807148 3.134407 -3.800742 2.197647 -22.325998 -0.549714 -1.133421 -49.604217 -7.195327 12.300325 4.212188 -54.096125 17.021648 2.758473 -3.757275 0.695734 26.007858 3.101478 -2.274850 55.179341 -4.831346 15.598776 -10.381313 21.702814 -1.392652 -16.083403 -1.559345 6.487622 
0.178556 0.337667 0.990226 91.940927 0.887504 82.024254 -1.699021 -1.577262 4.520680 -2.362507 -13.834235 13.596618 5.193766 17.521538 -16.622379 0.000000 -0.000000 0.000000 -4.433360 3.987511 -25.676402 0.397061 -3.527308 48.838324 6.352898 -11.426390 -11.678200 0.000000 -0.000000 0.000000 -0.854090 -5.623157 21.644794 3.156135 -1.908594 -2.434414 1.702899 -2.538570 1.873814 3.098836 3.964212 -11.778002 2.959983 -3.960622 1.767353 -22.265899 -0.320222 -1.091351 -48.314357 -9.180383 12.104402 4.599594 -56.032314 15.825017 3.580528 -4.762471 0.024286 26.341741 2.137759 -2.391658 54.412823 -4.969549 15.773792 -10.648520 23.960596 -0.957931 -16.739721 -0.774894 7.192419 
0.214826 0.339670 0.985303 92.368863 0.997954 82.529163 -1.414045 -0.102438 7.430138 -1.897696 -15.115415 11.471405 4.656409 17.287666 -18.992358 0.000000 -0.000000 0.000000 -4.667131 3.646100 -27.259453 0.440247 -3.254253 36.895865 7.380673 -10.715848 -12.923469 0.000000 -0.000000 0.000000 -0.553198 -6.419885 21.252212 3.217956 -2.293906 -2.295595 2.020174 -2.976407 2.091214 2.956417 4.132621 -11.350118 3.189819 -3.817649 1.201633 -22.259130 -0.440233 -0.854454 -47.191132 -10.993862 11.545161 5.718994 -57.201965 13.862362 4.149931 -4.998265 -1.208116 26.686998 1.577203 -1.976306 53.746125 -4.812161 15.941040 -10.700063 26.118316 -0.115547 -17.294208 -0.643165 7.757439 
0.250460 0.340520 0.976757 92.845345 0.895313 83.463915 -1.032569 1.381435 9.293698 -1.722938 -15.903583 10.432681 4.456546 16.471609 -21.945323 0.000000 -0.000000 0.000000 -4.506610 2.869006 -28.363832 -0.035761 -1.724707 24.312315 8.422690 -10.199440 -13.392203 0.000000 -0.000000 0.000000 -0.385946 -6.801415 20.378587 3.279112 -2.928861 -2.084027 2.376003 -3.379618 2.186529 2.684976 4.048535 -10.982678 3.561466 -3.513909 0.871625 -22.068479 -0.719517 -0.605565 -46.609901 -12.628626 10.792547 7.452728 -57.654681 11.459134 4.233502 -4.717150 -2.366148 26.751727 1.384111 -1.520238 53.602550 -4.539632 16.195141 -10.895641 27.647241 0.305638 -16.925239 -0.914300 8.027376 
0.286648 0.340493 0.965553 93.337091 0.628168 84.310634 -0.743773 2.464199 10.644565 -1.774698 -16.439815 10.681455 4.326088 15.675953 -25.233383 0.000000 -0.000000 0.000000 -4.270340 1.818339 -29.417377 -0.883815 -0.743824 14.137345 9.806205 -9.371372 -12.978034 0.000000 -0.000000 0.000000 -0.254524 -6.843803 19.737935 3.276550 -3.578631 -2.008971 2.629142 -3.790093 2.209118 2.552222 3.983063 -10.851732 3.774288 -3.334603 0.781450 -21.897576 -1.087720 -0.537758 -46.326715 -14.035985 10.086931 9.109218 -57.439817 9.488460 4.442599 -4.759919 -2.175470 26.854567 1.288263 -1.321028 53.761058 -4.104020 16.294497 -11.082032 28.304648 0.416387 -16.103798 -0.963717 8.042467 
0.324594 0.340192 0.953220 93.840675 0.341032 84.450955 -0.558453 2.872309 12.603220 -1.986439 -17.329234 11.569851 4.134509 15.785859 -28.342779 0.000000 -0.000000 0.000000 -4.537919 1.429496 -30.517079 -1.085921 -1.961536 10.141250 11.030742 -9.150982 -12.657560 0.000000 -0.000000 0.000000 -0.165530 -7.215005 19.919018 3.183492 -3.774074 -1.966645 2.672368 -4.085436 2.273611 2.651300 4.087004 -11.020033 3.696164 -3.521019 0.777724 -21.920299 -1.642519 -0.442225 -46.138634 -15.218926 9.690169 10.902993 -56.759657 7.421095 5.056397 -4.795601 -1.692125 27.323298 1.497536 -1.231054 53.883052 -3.539965 16.401995 -11.433639 28.302583 0.121093 -15.655051 -0.832914 8.046845 
0.363964 0.339439 0.940468 93.875391 0.237204 84.373657 -0.556256 2.715379 15.126341 -1.994532 -18.322329 12.305344 4.226970 17.118633 -30.964845 0.000000 -0.000000 0.000000 -5.056847 2.608961 -32.863317 -0.873809 -2.610504 14.144373 11.061351 -10.237392 -12.601444 0.000000 -0.000000 0.000000 -0.075788 -8.094366 20.191385 3.149482 -3.086954 -1.702964 2.504309 -4.068350 2.478973 2.924616 4.351429 -11.676414 3.177738 -3.786591 1.112243 -22.296807 -2.186337 -0.468712 -45.994724 -16.150024 9.749118 12.113918 -55.669891 5.664652 6.165957 -4.514475 -1.232679 28.148269 1.967230 -1.025117 53.754771 -2.722408 16.919407 -11.909581 27.936557 -0.675489 -16.506169 -0.705861 8.428921 
0.405713 0.337724 0.927852 93.902077 0.373945 84.695260 -0.551105 2.323495 17.800122 -1.593867 -19.133668 12.449516 4.416138 18.742810 -33.138329 0.000000 -0.000000 0.000000 -5.432200 4.476555 -35.708375 -0.371438 -2.016604 21.911114 10.605480 -10.887410 -12.220417 0.000000 -0.000000 0.000000 0.118355 -9.196773 19.480372 3.414952 -2.338853 -0.709824 2.320285 -3.909538 2.438924 3.110278 4.417712 -12.226119 2.468367 -3.626555 1.057154 -22.932386 -2.554706 -0.478656 -46.465275 -16.343509 10.053933 13.076488 -54.311274 4.199244 7.179852 -4.255577 -0.309959 28.842436 2.758270 -0.697158 53.526856 -1.867666 17.414595 -12.544827 27.297793 -1.780994 -16.779348 -0.565224 8.663756 
0.450720 0.334875 0.915796 94.978729 0.647850 85.458654 0.225585 1.992723 20.445557 -1.293346 -20.339151 12.088194 4.180041 19.495080 -34.678783 0.000000 -0.000000 0.000000 -5.915960 5.653649 -37.722160 0.184201 -2.601781 29.731771 10.218899 -10.771363 -11.431992 0.000000 -0.000000 0.000000 0.400098 -10.526372 18.192237 4.060208 -2.189517 0.167415 2.334176 -3.949032 1.991188 3.192555 4.416191 -12.267328 1.599300 -3.272582 0.964845 -23.545847 -2.520139 -0.167335 -47.915511 -15.641869 10.420051 13.325517 -52.817684 3.948741 7.252516 -3.932610 0.310186 29.313556 3.204127 -0.515496 52.916355 -1.192020 17.405596 -12.623704 27.355021 -2.459450 -16.441230 -0.812234 7.667896 
